<?xml version="1.0" encoding="iso-8859-1"?>
<!-- Generator: Adobe Illustrator 22.1.0, SVG Export Plug-In . SVG Version: 6.00 Build 0)  -->
<svg xmlns="http://www.w3.org/2000/svg" xmlns:xlink="http://www.w3.org/1999/xlink" version="1.1" id="Layer_1_1_" x="0px" y="0px" viewBox="0 0 64 64" style="enable-background:new 0 0 64 64;" xml:space="preserve" width="512" height="512">
<linearGradient id="SVGID_1_" gradientUnits="userSpaceOnUse" x1="32" y1="52" x2="32" y2="11">
	<stop offset="0" style="stop-color:#9F2FFF"/>
	<stop offset="1" style="stop-color:#0BB1D3"/>
</linearGradient>
<path style="fill:url(#SVGID_1_);" d="M62,52h-2v-2h2V52z M4,50H2v2h2V50z M23,36c-2.201,0-4.271-0.857-5.828-2.414L15.586,32  l1.586-1.586C18.729,28.857,20.799,28,23,28s4.271,0.857,5.828,2.414L30.414,32l-1.586,1.586C27.271,35.143,25.201,36,23,36z M23,34  c0.408,0,1-0.779,1-2s-0.592-2-1-2s-1,0.779-1,2S22.592,34,23,34z M27.414,31.828c-0.473-0.473-1.01-0.856-1.589-1.15  C25.931,31.092,26,31.532,26,32s-0.069,0.908-0.175,1.322c0.579-0.295,1.116-0.678,1.589-1.15L27.586,32L27.414,31.828z   M18.586,32.172c0.473,0.473,1.01,0.856,1.589,1.15C20.069,32.908,20,32.468,20,32s0.069-0.908,0.175-1.322  c-0.579,0.295-1.116,0.678-1.589,1.15L18.414,32L18.586,32.172z M35.172,33.586L33.586,32l1.586-1.586  C36.729,28.857,38.799,28,41,28s4.271,0.857,5.828,2.414L48.414,32l-1.586,1.586C45.271,35.143,43.201,36,41,36  S36.729,35.143,35.172,33.586z M41,34c0.408,0,1-0.779,1-2s-0.592-2-1-2s-1,0.779-1,2S40.592,34,41,34z M45.414,31.828  c-0.473-0.473-1.01-0.856-1.589-1.15C43.931,31.092,44,31.532,44,32s-0.069,0.908-0.175,1.322c0.579-0.295,1.116-0.678,1.589-1.15  L45.586,32L45.414,31.828z M36.414,32l0.172,0.172c0.473,0.473,1.01,0.856,1.589,1.15C38.069,32.908,38,32.468,38,32  s0.069-0.908,0.175-1.322c-0.579,0.295-1.116,0.678-1.589,1.15L36.414,32z M30.414,38h3.172C34.917,38,36,39.083,36,40.414  c0,0.635-0.258,1.257-0.706,1.707L34.414,43c-0.401,0.4-0.888,0.673-1.414,0.835V44.5c0,0.827,0.673,1.5,1.5,1.5s1.5-0.673,1.5-1.5  V44h2v0.5c0,1.93-1.57,3.5-3.5,3.5c-0.98,0-1.864-0.407-2.5-1.058C31.364,47.593,30.48,48,29.5,48c-1.93,0-3.5-1.57-3.5-3.5V44h2  v0.5c0,0.827,0.673,1.5,1.5,1.5s1.5-0.673,1.5-1.5v-0.665C30.474,43.673,29.987,43.4,29.586,43l-0.879-0.879  C28.258,41.671,28,41.049,28,40.414C28,39.083,29.083,38,30.414,38z M33.586,40h-3.172C30.186,40,30,40.186,30,40.414  c0,0.109,0.044,0.216,0.122,0.293L31,41.586c0.535,0.534,1.465,0.535,2,0l0.879-0.878C33.956,40.63,34,40.523,34,40.414  C34,40.186,33.814,40,33.586,40z M5.553,44.105c2.141-1.07,4.203-1.789,6.093-2.276C10.586,39.908,10,37.735,10,35.492  c0-0.025,0.004-0.05,0.004-0.075C8.718,35.16,7.373,35,6,35v-2c1.441,0,2.842,0.159,4.181,0.412c0.17-1.059,0.453-2.097,0.881-3.096  L13,25.795V11h1c4.593,0,8.915,6.307,10.367,8.658C25.68,19.016,28.336,18,32,18s6.32,1.016,7.633,1.658  C41.085,17.307,45.407,11,50,11h1v14.795l1.938,4.521c0.456,1.063,0.75,2.17,0.913,3.301C55.475,33.245,57.206,33,59,33v2  c-1.738,0-3.427,0.257-5.008,0.643c-0.024,2.107-0.563,4.146-1.526,5.971c2.123,0.479,4.5,1.251,6.981,2.491l-0.895,1.789  c-2.589-1.295-5.071-2.037-7.231-2.464c-0.533,0.702-1.134,1.359-1.809,1.949l-1.597,1.397C46.953,47.62,46.322,48.76,46.097,50H58  v2H6v-2h11.903c-0.225-1.24-0.856-2.38-1.819-3.223l-1.597-1.397c-0.615-0.538-1.162-1.137-1.659-1.769  c-1.952,0.448-4.126,1.156-6.381,2.283L5.553,44.105z M13.695,41.377c4.269-0.789,7.257-0.394,7.447-0.367l-0.281,1.98  c-0.039-0.005-2.348-0.302-5.764,0.195c0.227,0.237,0.458,0.472,0.708,0.69l1.597,1.397c1.399,1.223,2.285,2.909,2.526,4.728h24.147  c0.241-1.819,1.127-3.505,2.526-4.728l1.597-1.397c0.291-0.254,0.564-0.524,0.824-0.804c-2.922-0.331-4.846-0.085-4.881-0.081  l-0.281-1.98c0.177-0.026,2.766-0.365,6.547,0.215c0.906-1.508,1.438-3.221,1.555-5.001c-4.284,1.416-7.334,3.557-7.38,3.59  l-1.162-1.628c0.205-0.146,3.656-2.575,8.489-4.056c-0.127-1.039-0.391-2.053-0.808-3.026L49,26.205v-11.34  c-0.771,1.148-1.603,2.671-2.03,4.378l-1.939-0.485c0.454-1.819,1.284-3.43,2.092-4.687c-2.725,1.863-5.277,5.669-6.249,7.416  l-0.527,0.947l-0.901-0.601C39.42,21.815,36.602,20,32,20c-4.644,0-7.418,1.814-7.445,1.832l-0.901,0.601l-0.527-0.947  c-0.971-1.746-3.524-5.553-6.249-7.416c0.808,1.258,1.638,2.869,2.092,4.687l-1.939,0.485c-0.429-1.715-1.26-3.237-2.03-4.383  v11.345l-2.1,4.899c-0.38,0.887-0.627,1.81-0.767,2.753c5.329,1.432,9.229,4.173,9.447,4.329l-1.162,1.628  c-0.049-0.034-3.591-2.514-8.396-3.899C12.097,37.868,12.679,39.746,13.695,41.377z"/>
</svg>
